<svg aria-hidden="true" style="position:absolute;width:0;height:0" xmlns="http://www.w3.org/2000/svg" overflow="hidden"><defs><symbol id="icon-cloud" viewBox="0 0 32 32"><path  d="M25.36 14.215c0-.535.178-1.071.178-1.785 0-3.926-3.212-7.138-7.138-7.138-2.855 0-5.175 1.606-6.425 3.926-.357-.178-1.071-.357-1.606-.357a4.419 4.419 0 00-4.462 4.462c0 .357 0 .714.178.892-3.212.535-5.532 3.034-5.532 6.246 0 3.391 2.855 6.246 6.246 6.246h17.846c3.391 0 6.246-2.855 6.246-6.246 0-3.212-2.32-5.889-5.532-6.246z"/></symbol><symbol id="icon-csv" viewBox="0 0 32 32"><path  d="M28.163 11.235h-.755V7.596a.538.538 0 00-.007-.069.6.6 0 00-.147-.398L21.187.207a.602.602 0 00-.123-.102l-.04-.024a.61.61 0 00-.121-.051L20.87.019a.564.564 0 00-.142-.018H5.825c-.681 0-1.233.553-1.233 1.232v10.003h-.755a1.76 1.76 0 00-1.762 1.76v9.155c0 .971.79 1.76 1.762 1.76h.755v6.266c0 .679.553 1.232 1.233 1.232h20.35c.68 0 1.233-.553 1.233-1.232v-6.266h.755c.973 0 1.762-.788 1.762-1.76v-9.155a1.76 1.76 0 00-1.762-1.759zM5.825 1.232h14.286v6.302c0 .341.276.615.617.615h5.448v3.085H5.825V1.231zm9.227 16.876c-1.497-.534-2.486-1.362-2.486-2.669 0-1.534 1.297-2.695 3.408-2.695 1.029 0 1.764.2 2.298.453l-.455 1.628a4.24 4.24 0 00-1.871-.426c-.882 0-1.31.413-1.31.867 0 .574.493.827 1.67 1.267 1.591.587 2.325 1.414 2.325 2.683 0 1.509-1.149 2.789-3.621 2.789-1.029 0-2.044-.28-2.552-.561l.414-1.668a5.14 5.14 0 002.257.561c.936 0 1.43-.388 1.43-.975 0-.561-.427-.88-1.51-1.254zm-10.613-.614c0-3.056 2.191-4.751 4.916-4.751 1.056 0 1.857.213 2.218.387l-.428 1.614a4.288 4.288 0 00-1.71-.334c-1.603 0-2.859.973-2.859 2.975 0 1.788 1.068 2.923 2.872 2.923.628 0 1.297-.119 1.71-.294l.295 1.601c-.361.172-1.217.387-2.298.387-3.114.001-4.717-1.947-4.717-4.509zm21.736 12.35H5.825V23.91h20.35v5.934zm-1.647-7.973h-2.379l-2.885-8.995h2.231l1.095 3.804c.306 1.08.587 2.095.801 3.216h.04c.228-1.069.5-2.129.814-3.175l1.15-3.843h2.164l-3.031 8.993z"/></symbol><symbol id="icon-pdf" viewBox="0 0 32 32"><path  d="M10.845 16.306c0-.665-.462-1.062-1.276-1.062-.332 0-.557.032-.675.064v2.135c.14.031.311.043.547.043.868 0 1.404-.44 1.404-1.18zM15.887 15.265c-.365 0-.601.032-.741.065v4.729c.14.032.365.032.568.032 1.48.011 2.445-.805 2.445-2.531.011-1.502-.868-2.296-2.273-2.296z"/><path  d="M25.548 12.487h-.593V9.626a.329.329 0 00-.005-.054.475.475 0 00-.115-.314l-4.763-5.439a.483.483 0 00-.223-.139l-.026-.009a.463.463 0 00-.111-.014H8.014a.97.97 0 00-.968.968v7.862h-.593c-.764 0-1.383.619-1.383 1.383v7.195c0 .763.62 1.384 1.383 1.384h.593v4.926a.97.97 0 00.968.968h15.974a.97.97 0 00.968-.968v-4.926h.593c.764 0 1.383-.62 1.383-1.384V13.87c0-.764-.62-1.383-1.383-1.383zM8.013 4.625h11.214v4.953c0 .268.217.484.484.484h4.276v2.425H8.012V4.625zm11.885 12.882c0 1.384-.504 2.338-1.202 2.928-.761.632-1.919.933-3.335.933a14.31 14.31 0 01-1.856-.107v-7.1c.601-.096 1.383-.15 2.21-.15 1.372 0 2.262.247 2.959.772.751.557 1.223 1.447 1.223 2.723zM7.273 21.293V14.16c.504-.086 1.212-.15 2.209-.15 1.008 0 1.727.193 2.209.579.461.365.771.965.771 1.673s-.235 1.308-.665 1.716c-.558.526-1.383.762-2.349.762-.214 0-.408-.01-.557-.032v2.585H7.272zm16.714 5.82H8.013v-4.664h15.974v4.664zm1.403-11.708h-2.778v1.652h2.596v1.33h-2.596v2.906h-1.64v-7.229h4.418v1.341z"/></symbol><symbol id="icon-shield" viewBox="0 0 32 32"><path  d="M16.472 1.691L27.091 5.31c.259.091.472.388.466.662v15.075c0 .278-.178.641-.394.809L16.391 30.25c-.106.084-.25.128-.394.128s-.284-.044-.394-.128L4.831 21.856c-.216-.172-.394-.534-.394-.809V5.972c0-.275.213-.575.472-.662l10.619-3.619c.128-.044.3-.066.472-.066s.344.022.472.066zM16 27.703l9.313-7.256V7.084L16 3.909 6.687 7.084v13.363L16 27.703z"/><path  d="M12.591 16.525a4.503 4.503 0 111.416 1.416l-2.422 2.422a.25.25 0 01-.353 0L10.169 19.3a.253.253 0 010-.354l2.422-2.422zm5.581-4.166a2.501 2.501 0 10-3.536 3.537 2.501 2.501 0 003.536-3.537z"/></symbol><symbol id="icon-download" viewBox="0 0 32 32"><path  d="M19.5 22.072h-2.316V14.5a.25.25 0 00-.25-.25h-1.875a.251.251 0 00-.25.25v7.572H12.5a.25.25 0 00-.197.403l3.5 4.428a.25.25 0 00.306.071.24.24 0 00.087-.071l3.5-4.428a.25.25 0 00-.197-.403z"/><path  d="M25.356 11.459C23.925 7.684 20.278 5 16.006 5s-7.919 2.681-9.35 6.456A6.253 6.253 0 002 17.5a6.248 6.248 0 006.247 6.25H9.5a.25.25 0 00.25-.25v-1.875a.25.25 0 00-.25-.25H8.247a3.876 3.876 0 01-3.053-6.262 3.916 3.916 0 012.066-1.366l1.184-.309.434-1.144a7.686 7.686 0 012.753-3.54c1.284-.903 2.797-1.381 4.375-1.381s3.091.478 4.375 1.381a7.72 7.72 0 011.638 1.559 7.572 7.572 0 011.116 1.981l.431 1.141 1.181.313a3.892 3.892 0 012.878 3.753 3.857 3.857 0 01-1.134 2.741 3.832 3.832 0 01-2.737 1.134h-1.253a.25.25 0 00-.25.25v1.875c0 .138.112.25.25.25h1.253a6.252 6.252 0 001.603-12.291z"/></symbol><symbol id="icon-facebook" viewBox="0 0 32 32"><path d="M24 .444h-4.667a7.777 7.777 0 00-7.778 7.778v4.667H6.888v6.222h4.667v12.444h6.222V19.111h4.667L24 12.889h-6.222V8.222a1.555 1.555 0 011.556-1.556h4.667V.444z"/></symbol><symbol id="icon-linkedin" viewBox="0 0 32 32"><path d="M22.222 9.778a9.333 9.333 0 019.334 9.334v10.889h-6.222V19.112a3.114 3.114 0 00-3.111-3.111 3.114 3.114 0 00-3.111 3.111v10.889H12.89V19.112a9.333 9.333 0 019.334-9.334zM.444 11.333h6.222V30H.444V11.333zM3.556 6.667a3.111 3.111 0 100-6.222 3.111 3.111 0 000 6.222z"/></symbol><symbol id="icon-twitter" viewBox="0 0 32 32"><path d="M30.667 4a14.542 14.542 0 01-4.187 2.04 5.975 5.975 0 00-6.637-1.661A5.977 5.977 0 0016 10.04v1.333a14.211 14.211 0 01-12-6.04s-5.333 12 6.667 17.333a15.526 15.526 0 01-9.333 2.667c12 6.667 26.667 0 26.667-15.333a5.966 5.966 0 00-.107-1.107A10.288 10.288 0 0030.667 4z"/></symbol><symbol id="icon-windows" viewBox="0 0 32 32"><path  d="M0 4.599L13 2.8v12.601H0V4.598zm14.599-2L32 0v15.2H14.599V2.599zM0 16.8h13v12.601L0 27.598V16.799zm14.599 0H32V32l-17.2-2.401z"/></symbol><symbol id="icon-ios" viewBox="0 0 32 32"><path  d="M16 0C7.161 0 0 7.161 0 16s7.161 16 16 16c8.838 0 16-7.162 16-16S24.838 0 16 0zM9.929 22.992a1.1 1.1 0 01-.962.546 1.065 1.065 0 01-.561-.154 1.112 1.112 0 01-.542-1.107 1.1 1.1 0 01.141-.409l1.092-1.816a.623.623 0 01.538-.307h.161c.792 0 1.346.476 1.508.938l-1.377 2.308zm9.246-3.571l-11.906.008a1.097 1.097 0 01-.801-.339 1.105 1.105 0 01-.307-.815c.023-.6.546-1.054 1.143-1.054h3.446l4.085-6.954-1.323-2.254c-.298-.514-.166-1.191.345-1.514a1.11 1.11 0 011.562.37l.707 1.208h.008l.708-1.208A1.114 1.114 0 0118.4 6.5c.508.323.639 1 .338 1.516l-5.401 9.207v.008h4.115c.516 0 1.162.277 1.424.723l.023.046c.231.392.361.662.361 1.054a.979.979 0 01-.084.369l-.002-.002zm5.554.008h-1.936v.008l1.416 2.408a1.129 1.129 0 01-.369 1.538 1.107 1.107 0 01-1.129.016 1.133 1.133 0 01-.409-.399l-3.392-5.776-1.677-2.867a2.736 2.736 0 01-.046-2.714c.331-.585.585-.739.585-.739l3.731 6.31h3.208c.6 0 1.115.462 1.143 1.054a1.111 1.111 0 01-.313.82 1.115 1.115 0 01-.808.341h-.002z"/></symbol><symbol id="icon-playmarket" viewBox="0 0 32 32"><path  d="M3 3.718v24.563a.27.27 0 00.461.192L16.25 16 3.461 3.526a.273.273 0 00-.294-.057c-.049.021-.091.055-.121.099S3 3.664 3 3.718zM21.613 10.875L5.567 2.034c-.276-.15-.539.224-.313.441l12.571 12.02 3.788-3.621zM5.255 29.524c-.228.218.035.591.313.441l.01-.006 16.035-8.835-3.788-3.622L5.256 29.523zM28.086 14.438l-4.478-2.466-4.211 4.029 4.211 4.027 4.478-2.464c1.218-.673 1.218-2.452 0-3.125z"/></symbol></defs></svg>