<svg aria-hidden="true" style="position:absolute;width:0;height:0" xmlns="http://www.w3.org/2000/svg" overflow="hidden"><defs><symbol id="icon-pdf" viewBox="0 0 28 32"><path fill="var(--color1, #ed4c5c)" d="M7.402 16.099c0-.846-.588-1.351-1.624-1.351-.423 0-.709.041-.859.081v2.717c.178.04.396.055.696.055 1.105 0 1.788-.56 1.788-1.501zM13.82 14.774c-.464 0-.765.041-.943.082v6.019c.178.041.464.041.723.041 1.883.013 3.112-1.024 3.112-3.221.015-1.911-1.105-2.922-2.893-2.922z"/><path fill="var(--color1, #ed4c5c)" d="M26.116 11.238h-.755V7.597a.538.538 0 00-.007-.069.613.613 0 00-.146-.4L19.145.205a.623.623 0 00-.284-.177l-.033-.011a.562.562 0 00-.141-.018H3.798c-.68 0-1.232.553-1.232 1.232v10.006h-.755A1.76 1.76 0 00.05 12.998v9.158c0 .972.789 1.761 1.761 1.761h.755v6.27c0 .679.552 1.232 1.232 1.232h20.33c.679 0 1.232-.553 1.232-1.232v-6.27h.755c.973 0 1.761-.789 1.761-1.761v-9.158c0-.973-.789-1.761-1.761-1.761zM3.798 1.232H18.07v6.304c0 .341.276.615.617.615h5.443v3.086H3.799V1.231zm15.126 16.395c0 1.761-.641 2.976-1.53 3.726-.968.805-2.442 1.188-4.244 1.188a18.28 18.28 0 01-2.362-.136v-9.037c.765-.122 1.761-.19 2.813-.19 1.746 0 2.879.314 3.766.983.956.709 1.557 1.842 1.557 3.466zM2.857 22.446v-9.078c.641-.109 1.543-.19 2.811-.19 1.283 0 2.198.246 2.811.737.587.464.982 1.229.982 2.129 0 .902-.299 1.665-.846 2.184-.71.669-1.761.969-2.99.969-.273 0-.519-.013-.709-.041v3.29h-2.06zm21.272 7.407H3.799v-5.936h20.33v5.936zm1.785-14.901h-3.536v2.102h3.303v1.693h-3.303v3.699h-2.087v-9.2h5.623v1.706z"/></symbol><symbol id="icon-csv" viewBox="0 0 28 32"><path fill="var(--color1, #ed4c5c)" d="M26.089 11.235h-.755V7.596a.538.538 0 00-.007-.069.6.6 0 00-.147-.398L19.113.207a.602.602 0 00-.123-.102l-.04-.024a.61.61 0 00-.121-.051l-.033-.011a.564.564 0 00-.142-.018H3.751c-.681 0-1.233.553-1.233 1.232v10.003h-.755a1.76 1.76 0 00-1.762 1.76v9.155c0 .971.79 1.76 1.762 1.76h.755v6.266c0 .679.553 1.232 1.233 1.232h20.35c.68 0 1.233-.553 1.233-1.232v-6.266h.755c.973 0 1.762-.788 1.762-1.76v-9.155a1.76 1.76 0 00-1.762-1.759zM3.751 1.232h14.286v6.302c0 .341.276.615.617.615h5.448v3.085H3.751V1.231zm9.227 16.876c-1.497-.534-2.486-1.362-2.486-2.669 0-1.534 1.297-2.695 3.408-2.695 1.029 0 1.764.2 2.298.453l-.455 1.628a4.24 4.24 0 00-1.871-.426c-.882 0-1.31.413-1.31.867 0 .574.493.827 1.67 1.267 1.591.587 2.325 1.414 2.325 2.683 0 1.509-1.149 2.789-3.621 2.789-1.029 0-2.044-.28-2.552-.561l.414-1.668a5.14 5.14 0 002.257.561c.936 0 1.43-.388 1.43-.975 0-.561-.427-.88-1.51-1.254zm-10.613-.614c0-3.056 2.191-4.751 4.916-4.751 1.056 0 1.857.213 2.218.387l-.428 1.614a4.288 4.288 0 00-1.71-.334c-1.603 0-2.859.973-2.859 2.975 0 1.788 1.068 2.923 2.872 2.923.628 0 1.297-.119 1.71-.294l.295 1.601c-.361.172-1.217.387-2.298.387-3.114.001-4.717-1.947-4.717-4.509zm21.736 12.35H3.751V23.91h20.35v5.934zm-1.647-7.973h-2.379l-2.885-8.995h2.231l1.095 3.804c.306 1.08.587 2.095.801 3.216h.04c.228-1.069.5-2.129.814-3.175l1.15-3.843h2.164l-3.031 8.993z"/></symbol></defs></svg>